HIERARCHY
ROOT hip
{
  OFFSET 0 0 0
  CHANNELS 6 Xposition Yposition Zposition Zrotation Yrotation Xrotation
  JOINT abdomen
  {
    OFFSET 0 20.6881 -0.73152
    CHANNELS 3 Zrotation Xrotation Yrotation
    JOINT chest
    {
      OFFSET 0 11.7043 -0.48768
      CHANNELS 3 Zrotation Xrotation Yrotation
      JOINT neck
      {
        OFFSET 0 22.1894 -2.19456
        CHANNELS 3 Zrotation Xrotation Yrotation
        JOINT head
        {
          OFFSET -0.24384 7.07133 1.2192
          CHANNELS 3 Zrotation Xrotation Yrotation
          JOINT leftEye
          {
            OFFSET 4.14528 8.04674 8.04672
            CHANNELS 3 Zrotation Xrotation Yrotation
            End Site
            {
              OFFSET 1 0 0
            }
          }
          JOINT rightEye
          {
            OFFSET -3.6576 8.04674 8.04672
            CHANNELS 3 Zrotation Xrotation Yrotation
            End Site
            {
              OFFSET 1 0 0
            }
          }
        }
      }
      JOINT rCollar
      {
        OFFSET -2.68224 19.2634 -4.8768
        CHANNELS 3 Zrotation Xrotation Yrotation
        JOINT rShldr
        {
          OFFSET -8.77824 -1.95073 1.46304
          CHANNELS 3 Zrotation Xrotation Yrotation
          JOINT rForeArm
          {
            OFFSET -28.1742 -1.7115 0.48768
            CHANNELS 3 Zrotation Xrotation Yrotation
            JOINT rHand
            {
              OFFSET -22.5879 0.773209 7.07136
              CHANNELS 3 Zrotation Xrotation Yrotation
              JOINT rThumb1
              {
                OFFSET -1.2192 -0.487915 3.41376
                CHANNELS 3 Zrotation Xrotation Yrotation
                JOINT rThumb2
                {
                  OFFSET -3.37035 -0.52449 3.41376
                  CHANNELS 3 Zrotation Xrotation Yrotation
                  End Site
                  {
                    OFFSET -1.78271 -1.18214 1.43049
                  }
                }
              }
              JOINT rIndex1
              {
                OFFSET -7.75947 0.938293 5.60832
                CHANNELS 3 Zrotation Xrotation Yrotation
                JOINT rIndex2
                {
                  OFFSET -2.54057 -0.884171 1.56538
                  CHANNELS 3 Zrotation Xrotation Yrotation
                  End Site
                  {
                    OFFSET -1.62519 -0.234802 1.16502
                  }
                }
              }
              JOINT rMid1
              {
                OFFSET -8.24714 1.18213 3.41376
                CHANNELS 3 Zrotation Xrotation Yrotation
                JOINT rMid2
                {
                  OFFSET -3.10165 -0.590103 1.0647
                  CHANNELS 3 Zrotation Xrotation Yrotation
                  End Site
                  {
                    OFFSET -2.48547 -0.328903 0.83742
                  }
                }
              }
              JOINT rRing1
              {
                OFFSET -8.82822 0.546677 1.51678
                CHANNELS 3 Zrotation Xrotation Yrotation
                JOINT rRing2
                {
                  OFFSET -2.60934 -0.819778 -0.0198488
                  CHANNELS 3 Zrotation Xrotation Yrotation
                  End Site
                  {
                    OFFSET -2.33842 -0.294052 0.168128
                  }
                }
              }
              JOINT rPinky1
              {
                OFFSET -8.27202 -0.0477905 -0.4584
                CHANNELS 3 Zrotation Xrotation Yrotation
                JOINT rPinky2
                {
                  OFFSET -1.82734 -0.647385 -0.700984
                  CHANNELS 3 Zrotation Xrotation Yrotation
                  End Site
                  {
                    OFFSET -1.69225 -0.51767 -0.607171
                  }
                }
              }
            }
          }
        }
      }
      JOINT lCollar
      {
        OFFSET 2.68224 19.2634 -4.8768
        CHANNELS 3 Zrotation Xrotation Yrotation
        JOINT lShldr
        {
          OFFSET 8.77824 -1.95073 1.46304
          CHANNELS 3 Zrotation Xrotation Yrotation
          JOINT lForeArm
          {
            OFFSET 28.1742 -1.7115 0.48768
            CHANNELS 3 Zrotation Xrotation Yrotation
            JOINT lHand
            {
              OFFSET 22.5879 0.773209 7.07136
              CHANNELS 3 Zrotation Xrotation Yrotation
              JOINT lThumb1
              {
                OFFSET 1.2192 -0.487915 3.41376
                CHANNELS 3 Zrotation Xrotation Yrotation
                JOINT lThumb2
                {
                  OFFSET 3.37035 -0.52449 3.41376
                  CHANNELS 3 Zrotation Xrotation Yrotation
                  End Site
                  {
                    OFFSET 1.78271 -1.18214 1.43049
                  }
                }
              }
              JOINT lIndex1
              {
                OFFSET 7.75947 0.938293 5.60832
                CHANNELS 3 Zrotation Xrotation Yrotation
                JOINT lIndex2
                {
                  OFFSET 2.54057 -0.884171 1.56538
                  CHANNELS 3 Zrotation Xrotation Yrotation
                  End Site
                  {
                    OFFSET 1.62519 -0.234802 1.16502
                  }
                }
              }
              JOINT lMid1
              {
                OFFSET 8.24714 1.18213 3.41376
                CHANNELS 3 Zrotation Xrotation Yrotation
                JOINT lMid2
                {
                  OFFSET 3.10165 -0.590103 1.0647
                  CHANNELS 3 Zrotation Xrotation Yrotation
                  End Site
                  {
                    OFFSET 2.48547 -0.328903 0.83742
                  }
                }
              }
              JOINT lRing1
              {
                OFFSET 8.82822 0.546677 1.51678
                CHANNELS 3 Zrotation Xrotation Yrotation
                JOINT lRing2
                {
                  OFFSET 2.60934 -0.819778 -0.0198488
                  CHANNELS 3 Zrotation Xrotation Yrotation
                  End Site
                  {
                    OFFSET 2.33842 -0.294052 0.168128
                  }
                }
              }
              JOINT lPinky1
              {
                OFFSET 8.27202 -0.0477905 -0.4584
                CHANNELS 3 Zrotation Xrotation Yrotation
                JOINT lPinky2
                {
                  OFFSET 1.82734 -0.647385 -0.700984
                  CHANNELS 3 Zrotation Xrotation Yrotation
                  End Site
                  {
                    OFFSET 1.69225 -0.51767 -0.607171
                  }
                }
              }
            }
          }
        }
      }
    }
  }
  JOINT rButtock
  {
    OFFSET -8.77824 4.35084 1.2192
    CHANNELS 3 Zrotation Xrotation Yrotation
    JOINT rThigh
    {
      OFFSET 0 -1.70687 -2.19456
      CHANNELS 3 Zrotation Xrotation Yrotation
      JOINT rShin
      {
        OFFSET 0 -36.8199 0.73152
        CHANNELS 3 Zrotation Xrotation Yrotation
        JOINT rFoot
        {
          OFFSET 0.73152 -45.1104 -5.12064
          CHANNELS 3 Zrotation Xrotation Yrotation
          End Site
          {
            OFFSET -1.1221 -3.69964 12.103
          }
        }
      }
    }
  }
  JOINT lButtock
  {
    OFFSET 8.77824 4.35084 1.2192
    CHANNELS 3 Zrotation Xrotation Yrotation
    JOINT lThigh
    {
      OFFSET 0 -1.70687 -2.19456
      CHANNELS 3 Zrotation Xrotation Yrotation
      JOINT lShin
      {
        OFFSET 0 -36.8199 0.73152
        CHANNELS 3 Zrotation Xrotation Yrotation
        JOINT lFoot
        {
          OFFSET -0.73152 -45.1104 -5.12064
          CHANNELS 3 Zrotation Xrotation Yrotation
          End Site
          {
            OFFSET 1.1221 -3.69964 12.103
          }
        }
      }
    }
  }
}
MOTION
Frames:	4
Frame Time:	0.00833333
45.1355 79.0748 25.1 537.94 -9.1402 187.656 3.22454 -4.8325 -14.7875 -1.27956 1.1824 -4.24567 4.11943 7.4926 5.77117 -12.747 8.01153 16.9201 -0.0 0.0 0.0 -0.0 0.0 0.0 4.85289e-15 1.7191e-13 -1.96361e-13 84.5527 6.83749 -27.0993 -28.2049 -39.1995 82.4704 -0.730617 -23.5492 -3.51102 5.2117e-10 6.81e-10 7.43725e-10 8.87023e-10 1.20325e-09 1.29263e-09 5.21175e-10 6.80997e-10 7.43715e-10 7.73091 5.47488 0.417314 5.21172e-10 6.80995e-10 7.4372e-10 2.90554 0.965183 0.102902 5.21183e-10 6.80993e-10 7.43726e-10 10.2786 0.731801 0.0259123 5.21165e-10 6.80992e-10 7.43736e-10 2.22167 -0.733487 -0.20892 4.69762e-15 1.71912e-13 -1.96503e-13 -73.9599 21.5728 -27.6532 24.3373 -19.739 -50.7078 6.43751 -56.0746 12.0587 -8.78405e-10 -2.81175e-09 -1.19539e-09 -1.45718e-09 -4.356e-09 -2.09509e-09 -8.78409e-10 -2.81176e-09 -1.19538e-09 -7.73091 5.47488 -0.417314 -8.78404e-10 -2.81174e-09 -1.19539e-09 -2.90554 0.965183 -0.102902 -8.78411e-10 -2.81176e-09 -1.19538e-09 -10.2786 0.731801 -0.0259123 -8.784e-10 -2.81177e-09 -1.19539e-09 -2.22167 -0.733487 0.20892 -2.03217e-16 0.0 -3.88251e-19 13.6224 -17.8856 14.9984 -0.142673 34.9814 0.930817 -0.904706 -24.6709 -0.480988 2.03217e-16 0.0 3.88251e-19 15.9457 -49.9566 15.3048 1.0364 59.3474 -1.45638 -0.0910108 0.482723 -5.78268
44.6792 79.142 24.3755 538.411 -6.8539 187.592 3.65058 -4.79192 -14.6363 -1.28079 1.14411 -4.2182 4.06658 7.4433 6.03393 -13.2139 7.88903 17.0768 -0.0 0.0 0.0 -0.0 0.0 0.0 1.10108e-14 2.04349e-13 -1.39845e-13 85.4411 9.54154 -26.9807 -28.2576 -38.7312 81.6767 -0.688552 -22.8846 -3.40091 6.44724e-10 7.38817e-10 8.93742e-10 1.0988e-09 1.30736e-09 1.55329e-09 6.44728e-10 7.38816e-10 8.93729e-10 7.73091 5.47488 0.417314 6.44725e-10 7.38813e-10 8.93736e-10 2.90554 0.965183 0.102902 6.44737e-10 7.38812e-10 8.9374e-10 10.2786 0.731801 0.0259123 6.44718e-10 7.38811e-10 8.93749e-10 2.22167 -0.733487 -0.20892 1.08562e-14 2.04351e-13 -1.39994e-13 -72.8754 19.8845 -29.0245 24.2232 -19.52 -50.3234 6.60908 -56.5103 12.2641 -9.41123e-10 -3.70857e-09 -1.38746e-09 -1.55597e-09 -5.7751e-09 -2.42903e-09 -9.41127e-10 -3.70857e-09 -1.38745e-09 -7.73091 5.47488 -0.417314 -9.41122e-10 -3.70856e-09 -1.38747e-09 -2.90554 0.965183 -0.102902 -9.41129e-10 -3.70858e-09 -1.38746e-09 -10.2786 0.731801 -0.0259123 -9.4112e-10 -3.70859e-09 -1.38746e-09 -2.22167 -0.733487 0.20892 -2.03217e-16 0.0 -3.88251e-19 13.2873 -17.1247 15.3898 -0.142619 34.7291 0.931583 0.0414361 -24.826 1.52879 2.03217e-16 0.0 3.88251e-19 16.5513 -49.9741 16.1471 0.811312 55.1484 -1.22349 -0.158047 1.21149 -7.35483
44.267 79.2112 23.6126 539.0 -4.4312 187.593 4.09392 -4.76846 -14.1687 -1.46068 1.15894 -4.09131 4.11842 7.45548 6.12636 -13.4573 7.74237 17.1212 -0.0 0.0 0.0 -0.0 0.0 0.0 1.69135e-14 2.00603e-13 -1.08286e-13 86.4723 11.8618 -27.0613 -28.297 -38.3411 81.0104 -0.670857 -22.5817 -3.35146 7.62824e-10 6.64233e-10 9.5175e-10 1.3027e-09 1.18225e-09 1.65586e-09 7.62827e-10 6.64232e-10 9.51737e-10 7.73091 5.47488 0.417314 7.62824e-10 6.64229e-10 9.51743e-10 2.90554 0.965183 0.102902 7.62838e-10 6.64228e-10 9.51747e-10 10.2786 0.731801 0.0259123 7.62818e-10 6.64228e-10 9.51754e-10 2.22167 -0.733487 -0.20892 1.67308e-14 2.00605e-13 -1.08474e-13 -71.5493 18.3523 -30.5388 24.0631 -19.2167 -49.7996 6.64543 -56.5965 12.3068 -8.19434e-10 -3.53227e-09 -1.52439e-09 -1.34057e-09 -5.36132e-09 -2.65976e-09 -8.19438e-10 -3.53227e-09 -1.52438e-09 -7.73091 5.47488 -0.417314 -8.19433e-10 -3.53226e-09 -1.52439e-09 -2.90554 0.965183 -0.102902 -8.19441e-10 -3.53227e-09 -1.52439e-09 -10.2786 0.731801 -0.0259123 -8.19434e-10 -3.53228e-09 -1.52439e-09 -2.22167 -0.733487 0.20892 -2.03217e-16 0.0 -3.88251e-19 12.9055 -16.2839 15.775 -0.144445 34.3581 0.905798 1.04277 -24.7788 3.61212 2.03217e-16 0.0 3.88251e-19 17.0882 -49.4982 16.8048 0.622358 50.5425 -1.02455 0.00450784 2.89937 -8.64812
43.8407 79.2655 22.8202 539.583 -2.0129 187.509 4.56123 -4.767 -13.4799 -1.75854 1.22154 -3.89496 4.22328 7.49727 6.1577 -13.5454 7.60348 17.0339 -0.0 0.0 0.0 -0.0 0.0 0.0 2.49798e-14 1.75774e-13 -8.37039e-14 87.5937 13.93 -27.2701 -28.3306 -38.0001 80.4147 -0.667558 -22.5145 -3.34071 8.71063e-10 5.0564e-10 9.51995e-10 1.4907e-09 9.11085e-10 1.65891e-09 8.71066e-10 5.05641e-10 9.51983e-10 7.73091 5.47488 0.417314 8.71062e-10 5.05638e-10 9.51987e-10 2.90554 0.965183 0.102902 8.71078e-10 5.05638e-10 9.5199e-10 10.2786 0.731801 0.0259123 8.71059e-10 5.05637e-10 9.51998e-10 2.22167 -0.733487 -0.20892 2.47522e-14 1.75775e-13 -8.39555e-14 -70.0494 16.885 -32.1649 23.8601 -18.838 -49.1659 6.59414 -56.4618 12.2446 -5.9265e-10 -2.79333e-09 -1.61225e-09 -9.46872e-10 -3.98185e-09 -2.8013e-09 -5.92656e-10 -2.79334e-09 -1.61224e-09 -7.73091 5.47488 -0.417314 -5.92649e-10 -2.79332e-09 -1.61225e-09 -2.90554 0.965183 -0.102902 -5.92657e-10 -2.79333e-09 -1.61225e-09 -10.2786 0.731801 -0.0259123 -5.92654e-10 -2.79333e-09 -1.61226e-09 -2.22167 -0.733487 0.20892 -2.03217e-16 0.0 -3.88251e-19 12.4746 -15.3933 16.1277 -0.14859 33.8871 0.859119 2.09371 -24.5692 5.8009 2.03217e-16 0.0 3.88251e-19 17.61 -48.6236 17.4225 0.468066 45.5601 -0.855224 0.39219 5.32021 -9.81891
